<?xml version="1.0" encoding="UTF-8" standalone="no"?>
<!-- Created with Inkscape (http://www.inkscape.org/) -->

<svg
   xmlns:dc="http://purl.org/dc/elements/1.1/"
   xmlns:cc="http://creativecommons.org/ns#"
   xmlns:rdf="http://www.w3.org/1999/02/22-rdf-syntax-ns#"
   xmlns:svg="http://www.w3.org/2000/svg"
   xmlns="http://www.w3.org/2000/svg"
   xmlns:sodipodi="http://sodipodi.sourceforge.net/DTD/sodipodi-0.dtd"
   xmlns:inkscape="http://www.inkscape.org/namespaces/inkscape"
   width="50.799999mm"
   height="50.799999mm"
   viewBox="0 0 50.799999 50.799999"
   version="1.1"
   id="svg40"
   inkscape:version="0.92.4 (5da689c313, 2019-01-14)"
   sodipodi:docname="favicon.svg"
   inkscape:export-filename="C:\work\repos\escape-raquel-jesus\fincaslajuntaamañada\favicon.png"
   inkscape:export-xdpi="96"
   inkscape:export-ydpi="96">
  <defs
     id="defs34" />
  <sodipodi:namedview
     id="base"
     pagecolor="#ffffff"
     bordercolor="#666666"
     borderopacity="1.0"
     inkscape:pageopacity="0.0"
     inkscape:pageshadow="2"
     inkscape:zoom="0.7"
     inkscape:cx="37.452079"
     inkscape:cy="-20.213304"
     inkscape:document-units="mm"
     inkscape:current-layer="layer1"
     showgrid="false"
     fit-margin-top="0"
     fit-margin-left="0"
     fit-margin-right="0"
     fit-margin-bottom="0"
     inkscape:window-width="1920"
     inkscape:window-height="986"
     inkscape:window-x="-11"
     inkscape:window-y="-11"
     inkscape:window-maximized="1" />
  <metadata
     id="metadata37">
    <rdf:RDF>
      <cc:Work
         rdf:about="">
        <dc:format>image/svg+xml</dc:format>
        <dc:type
           rdf:resource="http://purl.org/dc/dcmitype/StillImage" />
        <dc:title></dc:title>
      </cc:Work>
    </rdf:RDF>
  </metadata>
  <g
     inkscape:label="Layer 1"
     inkscape:groupmode="layer"
     id="layer1"
     transform="translate(-27.970384,-59.782397)">
    <path
       style="fill:#666666;fill-opacity:1;stroke-width:0.99999994"
       d="m 105.71484,225.94922 v 192 h 64 v -192 z m 48.22852,68.41601 c 3.30555,0 5.09722,0.0549 5.375,0.16602 0.30555,0.0833 0.51389,0.26519 0.625,0.54297 0.13889,0.25 0.51389,2.16667 1.125,5.75 0.63889,3.58333 0.95898,5.45833 0.95898,5.625 0,0.58333 -0.25,0.875 -0.75,0.875 -0.36111,0 -0.70963,-0.27843 -1.04296,-0.83399 -3.91667,-6.80555 -10.27648,-10.20898 -19.08204,-10.20898 -3.02777,0 -5.48611,0.14019 -7.375,0.41797 -1.86111,0.25 -2.94444,0.56814 -3.25,0.95703 -0.30555,0.36111 -0.51389,2.09787 -0.625,5.20898 -0.0833,3.11112 -0.125,8.54102 -0.125,16.29102 2.19445,0.11111 3.70769,0.16797 4.54102,0.16797 4,0 6.77843,-0.84853 8.33398,-2.54297 1.58334,-1.72222 2.41667,-3.4987 2.5,-5.33203 0.0556,-1.22222 0.3737,-1.83399 0.95704,-1.83399 0.61111,0 0.91796,0.41667 0.91796,1.25 0,0.27778 -0.0284,0.62435 -0.084,1.04102 -0.19445,1.61111 -0.29102,5.73611 -0.29102,12.375 v 4.83398 c 0,1.16667 -0.34852,1.75 -1.04296,1.75 -0.58334,0 -0.88824,-0.4299 -0.91602,-1.29101 -0.0833,-2.5 -0.875,-4.54167 -2.375,-6.125 -1.5,-1.61111 -4.45833,-2.41797 -8.875,-2.41797 -0.72222,0 -1.94379,0.0417 -3.66602,0.125 l -0.125,10.29297 c 0,7.19444 0.10981,11.22092 0.33204,12.08203 0.22222,0.83333 0.69574,1.70833 1.41796,2.625 0.75,0.88889 2.29167,1.40408 4.625,1.54297 1.25,0.0555 1.875,0.36046 1.875,0.91601 0,0.61112 -0.44509,0.91602 -1.33398,0.91602 -0.33333,0 -1.20833,-0.0681 -2.625,-0.20703 -2.88889,-0.27778 -5.44379,-0.41797 -7.66602,-0.41797 -1.88889,0 -4.51389,0.11176 -7.875,0.33398 l -2.33398,0.125 c -0.88889,0 -1.33399,-0.27842 -1.33398,-0.83398 0,-0.55556 0.65342,-0.83203 1.95898,-0.83203 1.77778,0 3.05621,-0.5 3.83398,-1.5 0.77778,-1 1.27778,-3.54167 1.5,-7.625 0.25,-4.11111 0.375,-9.52778 0.375,-16.25 0,-6.33333 -0.11176,-11.3201 -0.33398,-14.95899 -0.22222,-3.66666 -0.54232,-6.07009 -0.95898,-7.20898 -0.38889,-1.13889 -0.98547,-1.94379 -1.79102,-2.41602 -0.80556,-0.5 -2.33398,-0.82009 -4.58398,-0.95898 -0.88889,-0.0556 -1.33204,-0.33203 -1.33204,-0.83203 0,-0.44445 0.38824,-0.69445 1.16602,-0.75 6.94444,-0.55556 20.06944,-0.83399 39.375,-0.83399 z"
       transform="scale(0.26458333)"
       id="rect42"
       inkscape:connector-curvature="0" />
    <path
       style="fill:#2a7fff;fill-opacity:1;stroke-width:0.99999994"
       d="m 169.71484,225.94922 v 192 h 64 v -192 z m 26.51954,68.29101 0.66796,0.041 c 2.94445,0.25 6.80426,0.375 11.58204,0.375 2.11111,0 3.94444,-0.0417 5.5,-0.125 0.91666,-0.0556 1.61176,-0.084 2.08398,-0.084 0.86111,0 1.29102,0.26519 1.29102,0.79296 -10e-6,0.55556 -0.35981,0.83204 -1.08204,0.83204 -2.19444,0 -3.76454,0.45833 -4.70898,1.375 -0.91667,0.88888 -1.48676,3.26388 -1.70898,7.125 -0.19445,3.86111 -0.29102,8.09787 -0.29102,12.70898 l 0.041,15.16602 c 0,6.13888 -1.65148,10.54231 -4.95704,13.20898 -3.30555,2.66667 -6.57074,4 -9.79296,4 -2.47223,0 -4.55556,-0.61176 -6.25,-1.83398 -1.69445,-1.22223 -2.54102,-2.8737 -2.54102,-4.95704 0,-1.25 0.34657,-2.25 1.04102,-3 0.69444,-0.75 1.58463,-1.125 2.66796,-1.125 1.05556,0 1.90213,0.33334 2.54102,1 0.63889,0.63889 0.95898,1.3737 0.95898,2.20704 0,0.5 -0.16666,1.07009 -0.5,1.70898 -0.47222,0.80556 -0.70898,1.41732 -0.70898,1.83398 0,0.69445 0.29167,1.26259 0.875,1.70704 0.58333,0.44444 1.29167,0.66796 2.125,0.66796 1.97222,0 3.59722,-0.66666 4.875,-2 1.27778,-1.36111 2.02778,-3.47287 2.25,-6.33398 0.22222,-2.88889 0.33398,-9.08398 0.33398,-18.58398 0,-11.58334 -0.16666,-18.54167 -0.5,-20.875 -0.30555,-2.33334 -2.16731,-3.66667 -5.58398,-4 -0.80556,-0.0833 -1.20898,-0.375 -1.20898,-0.875 0,-0.63889 0.33333,-0.95704 1,-0.95704 z"
       transform="scale(0.26458333)"
       id="rect42-7"
       inkscape:connector-curvature="0" />
    <path
       style="fill:#ffd42a;fill-opacity:1;stroke-width:0.99999994"
       d="m 233.71484,225.94922 v 192 h 64 v -192 z m 30.72852,68 h 1.91602 c 3.11111,6.36111 7.40277,17.23611 12.875,32.625 3.52777,9.86111 5.94444,15.91601 7.25,18.16601 1.30555,2.22223 3.40407,3.45899 6.29296,3.70899 0.91667,0.0833 1.375,0.38824 1.375,0.91601 0,0.38889 -0.23676,0.58399 -0.70898,0.58399 l -0.58398,-0.043 c -2.55556,-0.22222 -5.80556,-0.33203 -9.75,-0.33203 -6.05556,0 -9.9438,0.0966 -11.66602,0.29101 -0.86111,0 -1.29102,-0.25 -1.29102,-0.75 0,-0.36111 0.31815,-0.58268 0.95704,-0.66601 2.36111,-0.22222 3.98611,-0.62565 4.875,-1.20899 0.91666,-0.58333 1.37499,-1.5 1.375,-2.75 0,-1.19444 -0.84658,-4.1812 -2.54102,-8.95898 l -2.45898,-7.16602 c -1.44445,0 -7.90278,0.0833 -19.375,0.25 -2.88889,7.69445 -4.33204,12.54102 -4.33204,14.54102 0,1.69444 0.70834,2.95964 2.125,3.79297 1.44445,0.80555 2.86111,1.2487 4.25,1.33203 1.02778,0.0833 1.54102,0.40343 1.54102,0.95898 0,0.22223 -0.16667,0.43056 -0.5,0.625 -4.44445,-0.19444 -7.12435,-0.29101 -8.04102,-0.29101 -4.66666,0 -7.80685,0.0549 -9.41796,0.16601 -0.88889,0 -1.33204,-0.25 -1.33204,-0.75 0,-0.44444 0.38824,-0.72287 1.16602,-0.83398 3.19444,-0.41667 5.63954,-2.58333 7.33398,-6.5 1.69445,-3.91667 4.33269,-10.95833 7.91602,-21.125 3.27778,-9.25 6.86111,-18.10981 10.75,-26.58203 z m -1.66602,9.08203 c -2.58333,5.27778 -5.59852,12.94444 -9.04296,23 2.86111,-0.13889 4.91796,-0.20703 6.16796,-0.20703 l 11.70704,0.20703 c -1.02778,-2.88889 -2.47093,-6.72222 -4.33204,-11.5 -2.27777,-5.69444 -3.77777,-9.52778 -4.5,-11.5 z"
       transform="scale(0.26458333)"
       id="rect42-7-0"
       inkscape:connector-curvature="0" />
  </g>
</svg>
